<?xml version="1.0" encoding="UTF-8"?>
<svg xmlns="http://www.w3.org/2000/svg" xmlns:xlink="http://www.w3.org/1999/xlink" width="30px" height="30px" viewBox="0 0 30 30" version="1.1">
<g id="surface1">
<path style=" stroke:none;fill-rule:nonzero;fill:rgb(0%,0%,0%);fill-opacity:0.85098;" d="M 14.988281 2.234375 C 7.742188 2.234375 1.875 8.097656 1.875 15.335938 C 1.875 21.0625 5.546875 25.929688 10.65625 27.714844 C 11.347656 27.886719 11.242188 27.398438 11.242188 27.066406 L 11.242188 24.792969 C 7.265625 25.261719 7.105469 22.628906 6.839844 22.191406 C 6.296875 21.269531 5.023438 21.035156 5.40625 20.597656 C 6.3125 20.128906 7.234375 20.714844 8.300781 22.292969 C 9.074219 23.4375 10.585938 23.246094 11.347656 23.054688 C 11.515625 22.367188 11.875 21.75 12.367188 21.273438 C 8.246094 20.535156 6.53125 18.019531 6.53125 15.03125 C 6.53125 13.582031 7.007812 12.25 7.945312 11.175781 C 7.347656 9.402344 8 7.882812 8.089844 7.660156 C 9.789062 7.507812 11.5625 8.878906 11.699219 8.984375 C 12.664062 8.726562 13.769531 8.585938 15.003906 8.585938 C 16.25 8.585938 17.355469 8.730469 18.332031 8.996094 C 18.660156 8.742188 20.304688 7.566406 21.882812 7.707031 C 21.96875 7.933594 22.609375 9.417969 22.046875 11.164062 C 22.996094 12.242188 23.476562 13.589844 23.476562 15.042969 C 23.476562 18.035156 21.75 20.550781 17.621094 21.277344 C 17.972656 21.625 18.253906 22.042969 18.445312 22.5 C 18.636719 22.957031 18.734375 23.449219 18.734375 23.945312 L 18.734375 27.242188 C 18.757812 27.503906 18.734375 27.765625 19.175781 27.765625 C 24.363281 26.015625 28.097656 21.113281 28.097656 15.339844 C 28.097656 8.097656 22.226562 2.234375 14.988281 2.234375 Z M 14.988281 2.234375 "/>
</g>
</svg>
